<svg width="76" height="15" viewBox="0 0 76 15" fill="none" xmlns="http://www.w3.org/2000/svg">
<path d="M8.45517 11.043L8.21001 10.905L7.96484 11.043L4.34209 13.0821L5.28746 9.28887L5.36452 8.97972L5.11679 8.77937L2 6.25859L6.14392 5.92673L6.43737 5.90322L6.55911 5.63517L8.21001 2L9.86093 5.63518L9.98267 5.90322L10.2761 5.92673L14.42 6.25859L11.3032 8.77937L11.0555 8.97972L11.1326 9.28887L12.0779 13.0821L8.45517 11.043Z" fill="white" stroke="white"/>
<path d="M23.4552 11.043L23.21 10.905L22.9648 11.043L19.3421 13.0821L20.2875 9.28887L20.3645 8.97972L20.1168 8.77937L17 6.25859L21.1439 5.92673L21.4374 5.90322L21.5591 5.63517L23.21 2L24.8609 5.63518L24.9827 5.90322L25.2761 5.92673L29.42 6.25859L26.3032 8.77937L26.0555 8.97972L26.1326 9.28887L27.0779 13.0821L23.4552 11.043Z" fill="white" stroke="white"/>
<path d="M38.4552 11.043L38.21 10.905L37.9648 11.043L34.3421 13.0821L35.2875 9.28887L35.3645 8.97972L35.1168 8.77937L32 6.25859L36.1439 5.92673L36.4374 5.90322L36.5591 5.63517L38.21 2L39.8609 5.63518L39.9827 5.90322L40.2761 5.92673L44.42 6.25859L41.3032 8.77937L41.0555 8.97972L41.1326 9.28887L42.0779 13.0821L38.4552 11.043Z" fill="white" stroke="white"/>
<path d="M53.4552 11.043L53.21 10.905L52.9648 11.043L49.3421 13.0821L50.2875 9.28887L50.3645 8.97972L50.1168 8.77937L47 6.25859L51.1439 5.92673L51.4374 5.90322L51.5591 5.63517L53.21 2L54.8609 5.63518L54.9827 5.90322L55.2761 5.92673L59.42 6.25859L56.3032 8.77937L56.0555 8.97972L56.1326 9.28887L57.0779 13.0821L53.4552 11.043Z" fill="white" stroke="white"/>
<path d="M68.4552 11.043L68.21 10.905L67.9648 11.043L64.3421 13.0821L65.2875 9.28887L65.3645 8.97972L65.1168 8.77937L62 6.25859L66.1439 5.92673L66.4374 5.90322L66.5591 5.63517L68.21 2L69.8609 5.63518L69.9827 5.90322L70.2761 5.92673L74.42 6.25859L71.3032 8.77937L71.0555 8.97972L71.1326 9.28887L72.0779 13.0821L68.4552 11.043Z" stroke="white"/>
</svg>
