<svg width="190" height="43" viewBox="0 0 190 43" fill="none" xmlns="http://www.w3.org/2000/svg">
<path fill-rule="evenodd" clip-rule="evenodd" d="M27.0532 0H28.0401C29.2653 0 30.4532 0.265115 31.4406 0.902589C32.4443 1.55064 33.1699 2.53895 33.5188 3.84435C34.7782 8.55698 33.3699 12.7763 31.5498 16.7806V29.7874L27.0532 28.4422V0ZM29.027 2.02519V27.0032L29.576 27.1675V16.3639L29.6633 16.1736C31.4903 12.1881 32.7068 8.44247 31.6099 4.33803C31.3766 3.46534 30.927 2.89347 30.3576 2.52586C29.9894 2.28815 29.5432 2.11846 29.027 2.02519ZM20.2858 9.65066L20.2861 0.40534L22.2599 0.405402L22.2596 9.68467C22.9456 9.57597 23.346 9.33504 23.5954 9.07469C23.9678 8.68585 24.1869 8.06605 24.245 7.14194C24.3028 6.22302 24.194 5.15955 24.056 4.00963C24.0421 3.8935 24.0278 3.7763 24.0134 3.65829L24.0132 3.65663L24.0124 3.65013L24.0112 3.64054L24.011 3.63832C23.8885 2.63334 23.7591 1.57148 23.7591 0.618508H25.7329C25.7329 1.4472 25.8469 2.38575 25.9715 3.41273L25.9719 3.41591C25.9866 3.53671 26.0014 3.65874 26.0162 3.78195C26.1522 4.91498 26.2854 6.14407 26.2151 7.26186C26.1451 8.37445 25.8659 9.53551 25.032 10.4062C24.3576 11.1103 23.4282 11.5152 22.2593 11.6428L22.2545 26.6724L20.2808 26.6718L20.2855 11.6165C19.1154 11.4613 18.1897 11.0474 17.5183 10.3514C16.6862 9.48877 16.4033 8.3535 16.332 7.25664C16.2608 6.16002 16.3936 4.95236 16.5287 3.8283L16.5671 3.5105L16.5671 3.51042L16.5671 3.51025L16.5671 3.51012C16.6932 2.46978 16.8107 1.5006 16.8107 0.618519L18.7845 0.618496C18.7845 1.62375 18.6522 2.71158 18.5286 3.72811L18.5286 3.72814L18.5283 3.72997C18.515 3.83963 18.5018 3.94845 18.4888 4.05624C18.3512 5.20121 18.2437 6.23879 18.3018 7.13276C18.3599 8.02649 18.5761 8.62716 18.9501 9.01493C19.2033 9.27736 19.6066 9.52185 20.2858 9.65066ZM17.3568 15.0199L17.7022 13.1082C9.01703 12.321 5.44146 15.9693 3.12733 19.0726C0.814817 22.1737 -0.411031 26.1315 0.124663 29.9497C0.948359 35.8207 5.44453 40.63 11.1171 42.3324C19.322 44.7948 28.8764 40.244 31.2733 31.9967L29.3756 31.463C29.1789 32.1397 28.8634 32.8435 28.4948 33.5348C28.0039 32.8747 27.7056 32.0919 27.415 31.3295L27.3411 31.1361L27.3398 31.1326L27.2654 30.9379C26.9505 30.1118 26.6279 29.2653 26.0656 28.571C24.3508 26.4535 21.5484 27.914 19.9507 29.3596L19.9482 29.3619C19.232 30.0099 18.6639 30.524 17.7651 30.8044C16.9467 31.0598 16.1416 30.8473 15.3322 30.6336C14.6419 30.4514 13.9484 30.2683 13.2408 30.3739C10.4816 30.7858 9.87677 34.4013 9.92589 36.6139C9.95046 37.7208 10.0997 38.9054 10.2352 39.9481C6.55186 38.3812 3.64594 35.2913 2.49723 31.5571C3.42435 31.8605 4.5136 32.0067 5.39586 31.4966C6.38212 30.9264 6.86523 30.011 7.35054 29.0915C7.70051 28.4283 8.05162 27.7631 8.59338 27.2235C9.23664 26.5829 10.1458 26.6018 11.0886 26.6213C12.2172 26.6447 13.3941 26.6691 14.2212 25.565C15.1094 24.3795 15.1313 23.2105 15.1463 22.4088C15.1471 22.3642 15.1476 22.3191 15.1481 22.2738L15.1481 22.2735L15.1481 22.2733C15.1518 21.9434 15.1557 21.5983 15.2875 21.2951C15.3625 21.1226 15.5102 20.9102 15.908 20.6711C16.7659 20.1553 17.1673 19.3732 17.1763 18.5197C17.1845 17.7418 16.8696 16.977 16.4915 16.3376C16.2 15.8447 15.8317 15.3616 15.4352 14.9239C16.1031 14.8946 16.7416 14.9123 17.3568 15.0199ZM12.3152 40.647C17.9764 42.0749 24.131 39.998 27.4321 35.2911C26.973 34.8434 26.6259 34.3179 26.3485 33.7977C26.1999 33.5192 26.0459 33.0583 25.872 32.5375C25.4091 31.152 24.8049 29.3435 23.787 29.4256C22.6097 29.5204 21.6975 30.2995 20.7769 31.0856C20.0267 31.7262 19.2711 32.3715 18.3619 32.6552C17.3871 32.9594 16.5161 32.7429 15.6562 32.5291C14.959 32.3558 14.269 32.1843 13.5369 32.2936C11.9614 32.5288 11.8751 35.4833 11.8992 36.5715C11.9228 37.634 12.0582 38.6635 12.1909 39.672C12.2339 39.9991 12.2766 40.3239 12.3152 40.647ZM2.02634 29.2333C2.57583 29.5352 3.76664 30.1864 4.39571 29.8227C5.18444 29.3667 5.62291 28.4972 6.0601 27.6302C6.38806 26.9799 6.7153 26.3309 7.18916 25.859C8.06728 24.9846 9.2936 24.9449 10.4612 24.9803L10.4639 24.9804C10.5109 24.9818 10.5585 24.9835 10.6067 24.9851C11.3291 25.0099 12.1637 25.0386 12.6324 24.413C13.1353 23.7418 13.1507 23.1591 13.1721 22.3485C13.1885 21.7302 13.2218 21.1086 13.4728 20.5315C13.732 19.9352 14.1848 19.4315 14.8787 19.0143C15.1418 18.8562 15.2005 18.7006 15.2026 18.4996C15.2055 18.2229 15.0824 17.8162 14.7854 17.3139C14.2675 16.4382 13.422 15.6032 12.8079 15.1745C9.56993 15.6366 6.7013 17.5625 4.71884 20.221C2.76043 22.8472 1.72217 26.1164 2.02634 29.2333ZM51.0024 25.9999C49.3807 25.9999 47.9635 25.7142 46.7511 25.1427C45.5537 24.5713 44.6293 23.7801 43.9776 22.7691C43.3258 21.7434 43 20.5641 43 19.2307C43 17.8973 43.2426 16.6666 43.7275 15.5384C44.2124 14.4103 44.8944 13.4358 45.7735 12.6154C46.6527 11.7802 47.6984 11.1356 48.9109 10.6813C50.1385 10.227 51.495 10 52.9802 10C54.4504 10 55.7538 10.249 56.8905 10.7472C58.0272 11.2455 58.8759 11.9633 59.4367 12.9011L56.1857 15.4065C55.822 14.8204 55.3446 14.3736 54.7535 14.0659C54.1776 13.7582 53.4879 13.6044 52.6847 13.6044C51.9117 13.6044 51.207 13.7362 50.5704 14C49.9491 14.2637 49.411 14.6373 48.9563 15.1208C48.5016 15.6043 48.1531 16.1758 47.9105 16.8351C47.668 17.4797 47.5468 18.183 47.5468 18.945C47.5468 19.6336 47.6984 20.2417 48.0015 20.7691C48.3198 21.2819 48.7669 21.6849 49.3428 21.9779C49.9339 22.2564 50.6311 22.3955 51.4343 22.3955C52.1466 22.3955 52.8286 22.2564 53.4804 21.9779C54.1472 21.6995 54.761 21.2454 55.3218 20.6153L57.9817 23.1428C57.0876 24.183 56.0569 24.923 54.8899 25.3625C53.7229 25.7874 52.4271 25.9999 51.0024 25.9999ZM68.3533 26C66.7164 26 65.3069 25.7143 64.1247 25.1429C62.9426 24.5567 62.0332 23.7583 61.3966 22.7473C60.7601 21.7363 60.4418 20.5642 60.4418 19.2308C60.4418 17.8829 60.6844 16.6521 61.1693 15.5385C61.6544 14.4104 62.3364 13.4359 63.2154 12.6155C64.0945 11.7803 65.1402 11.1357 66.3527 10.6814C67.5803 10.2272 68.9216 10.0001 70.3766 10.0001C72.0134 10.0001 73.423 10.2931 74.6051 10.8792C75.7873 11.4507 76.6967 12.2419 77.3332 13.2528C77.9698 14.2638 78.288 15.4359 78.288 16.7693C78.288 18.1172 78.0457 19.3554 77.5605 20.4836C77.0756 21.5972 76.3936 22.5715 75.5145 23.4066C74.6356 24.2271 73.5821 24.8644 72.3545 25.3187C71.142 25.773 69.8082 26 68.3533 26ZM68.7397 22.3956C69.5279 22.3956 70.2251 22.2565 70.8313 21.9781C71.4528 21.6996 71.9757 21.3114 72.3999 20.8132C72.8396 20.3005 73.1729 19.7216 73.4002 19.077C73.6276 18.4323 73.7412 17.751 73.7412 17.033C73.7412 16.3445 73.5898 15.7436 73.2865 15.2309C72.9987 14.7181 72.5743 14.3225 72.0134 14.0441C71.4678 13.7511 70.7935 13.6045 69.9901 13.6045C69.2172 13.6045 68.5201 13.7436 67.8986 14.0221C67.2772 14.3005 66.7468 14.6961 66.3072 15.2089C65.8829 15.7071 65.557 16.2785 65.3296 16.9231C65.1023 17.5678 64.9886 18.2491 64.9886 18.9671C64.9886 19.6411 65.1327 20.2418 65.4206 20.7693C65.7238 21.282 66.1481 21.6851 66.6937 21.9781C67.2545 22.2565 67.9365 22.3956 68.7397 22.3956ZM84.4629 25.1429C85.6451 25.7143 87.0546 26 88.6914 26C90.1464 26 91.48 25.773 92.6926 25.3187C93.9202 24.8644 94.9735 24.2271 95.8526 23.4066C96.7315 22.5715 97.4136 21.5972 97.8987 20.4836C98.3836 19.3554 98.6262 18.1172 98.6262 16.7693C98.6262 15.4359 98.3079 14.2638 97.6713 13.2528C97.0348 12.2419 96.1254 11.4507 94.9433 10.8792C93.7611 10.2931 92.3516 10.0001 90.7147 10.0001C89.2598 10.0001 87.9184 10.2272 86.6908 10.6814C85.4782 11.1357 84.4324 11.7803 83.5535 12.6155C82.6744 13.4359 81.9924 14.4104 81.5075 15.5385C81.0223 16.6521 80.78 17.8829 80.78 19.2308C80.78 20.5642 81.0982 21.7363 81.7348 22.7473C82.3713 23.7583 83.2807 24.5567 84.4629 25.1429ZM91.1694 21.9781C90.5631 22.2565 89.8659 22.3956 89.0779 22.3956C88.2745 22.3956 87.5925 22.2565 87.0318 21.9781C86.4862 21.6851 86.0618 21.282 85.7587 20.7693C85.4707 20.2418 85.3268 19.6411 85.3268 18.9671C85.3268 18.2491 85.4404 17.5678 85.6678 16.9231C85.8951 16.2785 86.2209 15.7071 86.6453 15.2089C87.0848 14.6961 87.6152 14.3005 88.2367 14.0221C88.8581 13.7436 89.5553 13.6045 90.3283 13.6045C91.1315 13.6045 91.806 13.7511 92.3516 14.0441C92.9122 14.3225 93.3367 14.7181 93.6247 15.2309C93.9277 15.7436 94.0794 16.3445 94.0794 17.033C94.0794 17.751 93.9657 18.4323 93.7383 19.077C93.511 19.7216 93.1775 20.3005 92.7381 20.8132C92.3136 21.3114 91.7907 21.6996 91.1694 21.9781ZM106.875 16.039L114.192 10.0001H119.611L111.121 17.0861L116.704 25.2156H111.563L108.051 19.5424L105.743 21.328L104.911 25.2156H100.375L103.631 10.0001H108.167L106.875 16.039ZM126.248 13.4506L123.77 25.3846H128.271L130.749 13.4506H135.614L136.342 10.0001H122.087L121.36 13.4506H126.248ZM144.198 26C142.561 26 141.151 25.7143 139.969 25.1429C138.787 24.5567 137.878 23.7583 137.241 22.7473C136.605 21.7363 136.286 20.5642 136.286 19.2308C136.286 17.8829 136.529 16.6521 137.014 15.5385C137.499 14.4104 138.181 13.4359 139.06 12.6155C139.939 11.7803 140.985 11.1357 142.197 10.6814C143.425 10.2272 144.766 10.0001 146.221 10.0001C147.858 10.0001 149.268 10.2931 150.45 10.8792C151.632 11.4507 152.541 12.2419 153.178 13.2528C153.814 14.2638 154.133 15.4359 154.133 16.7693C154.133 18.1172 153.889 19.3554 153.405 20.4836C152.921 21.5972 152.239 22.5715 151.359 23.4066C150.479 24.2271 149.427 24.8644 148.199 25.3187C146.987 25.773 145.653 26 144.198 26ZM144.584 22.3956C145.372 22.3956 146.07 22.2565 146.676 21.9781C147.297 21.6996 147.82 21.3114 148.244 20.8132C148.684 20.3005 149.017 19.7216 149.245 19.077C149.472 18.4323 149.586 17.751 149.586 17.033C149.586 16.3445 149.434 15.7436 149.131 15.2309C148.843 14.7181 148.419 14.3225 147.858 14.0441C147.312 13.7511 146.638 13.6045 145.835 13.6045C145.062 13.6045 144.365 13.7436 143.743 14.0221C143.122 14.3005 142.591 14.6961 142.152 15.2089C141.727 15.7071 141.402 16.2785 141.174 16.9231C140.947 17.5678 140.833 18.2491 140.833 18.9671C140.833 19.6411 140.977 20.2418 141.265 20.7693C141.568 21.282 141.993 21.6851 142.538 21.9781C143.099 22.2565 143.781 22.3956 144.584 22.3956ZM159.274 24.8132C160.351 25.3993 161.684 25.6923 163.275 25.6923C165.61 25.6923 167.481 25.1062 168.89 23.9341C170.3 22.7473 171.241 21.011 171.709 18.7253L173.505 10.0001H169.072L167.322 18.4616C167.156 19.326 166.913 20.0293 166.594 20.5715C166.292 21.0989 165.905 21.4873 165.435 21.7363C164.98 21.9708 164.443 22.0879 163.821 22.0879C163.307 22.0879 162.859 22.022 162.479 21.8901C162.116 21.7436 161.82 21.5165 161.593 21.2088C161.381 20.9011 161.252 20.5202 161.206 20.066C161.161 19.6117 161.199 19.077 161.32 18.4616L163.07 10.0001H158.569L156.796 18.5275C156.509 19.9634 156.584 21.2235 157.023 22.3077C157.464 23.3774 158.214 24.2125 159.274 24.8132ZM190 14.8473C190 16.2385 189.608 17.4411 188.825 18.4555C188.041 19.4553 186.945 20.1872 185.532 20.6509L188.272 25.2156H183.505L181.109 21.1727H178.806L177.954 25.2156H173.394L176.618 10.0001H183.505C185.562 10.0001 187.16 10.4275 188.295 11.2826C189.432 12.1376 190 13.3257 190 14.8473ZM185.394 15.2603C185.394 14.6371 185.172 14.1736 184.726 13.8692C184.28 13.5504 183.659 13.391 182.86 13.391H180.464L179.497 17.8469H182.214C183.229 17.8469 184.012 17.6224 184.565 17.173C185.117 16.7238 185.394 16.0863 185.394 15.2603ZM136.051 39.2514C135.501 39.2514 135.039 39.1543 134.665 38.96C134.29 38.7658 134.004 38.5003 133.806 38.1636C133.615 37.8269 133.511 37.4513 133.496 37.0369V36.4638V35.881C133.496 35.2724 133.55 34.7705 133.657 34.3755C133.771 33.9741 133.939 33.6503 134.161 33.4042C134.39 33.1517 134.676 32.9477 135.02 32.7923C135.371 32.6369 135.78 32.5009 136.246 32.3844C136.711 32.2678 137.242 32.1415 137.838 32.0056C137.899 31.9926 137.96 32.0023 138.021 32.0347C138.082 32.0606 138.117 32.0994 138.124 32.1512L138.17 32.3358C138.185 32.3941 138.178 32.4459 138.147 32.4912C138.117 32.5301 138.071 32.556 138.01 32.5689C137.445 32.6984 136.944 32.8117 136.509 32.9089C136.074 33.006 135.703 33.1161 135.398 33.2391C135.092 33.3621 134.844 33.524 134.653 33.7248C134.47 33.919 134.271 34.1651 134.195 34.5018C134.174 34.593 134.148 34.6733 134.123 34.7528C134.057 34.9608 133.993 35.1626 134.015 35.5375C134.071 35.36 134.169 35.196 134.31 35.0457C134.523 34.8191 134.794 34.6378 135.123 34.5018C135.451 34.3658 135.799 34.2978 136.165 34.2978C136.677 34.2978 137.108 34.3949 137.46 34.5892C137.819 34.7835 138.094 35.049 138.285 35.3857C138.475 35.7159 138.579 36.0915 138.594 36.5124C138.609 36.7261 138.609 36.9009 138.594 37.0369C138.579 37.4513 138.472 37.8269 138.273 38.1636C138.082 38.5003 137.8 38.7658 137.425 38.96C137.059 39.1543 136.601 39.2514 136.051 39.2514ZM136.051 38.6881C136.585 38.6881 137.021 38.5424 137.357 38.251C137.693 37.9596 137.872 37.5387 137.895 36.9883C137.903 36.93 137.907 36.8685 137.907 36.8038C137.907 36.739 137.903 36.6581 137.895 36.5609C137.872 36.0041 137.697 35.5832 137.368 35.2983C137.04 35.0069 136.639 34.8612 136.165 34.8612C135.631 34.8612 135.176 35.0069 134.802 35.2983C134.428 35.5832 134.229 36.0041 134.206 36.5609C134.199 36.6581 134.195 36.739 134.195 36.8038C134.195 36.8685 134.199 36.93 134.206 36.9883C134.229 37.5387 134.409 37.9596 134.745 38.251C135.081 38.5424 135.516 38.6881 136.051 38.6881ZM43.0687 39.0962C43.1146 39.1351 43.1756 39.1545 43.252 39.1545H43.4582C43.5422 39.1545 43.6071 39.1351 43.653 39.0962C43.6988 39.0574 43.7217 39.0056 43.7217 38.9408V32.9382H47.4447C47.5287 32.9382 47.5936 32.9187 47.6394 32.8799C47.6852 32.841 47.7081 32.7892 47.7081 32.7245V32.5788C47.7081 32.5076 47.6852 32.4525 47.6394 32.4137C47.5936 32.3748 47.5287 32.3554 47.4447 32.3554H43.252C43.1756 32.3554 43.1146 32.3748 43.0687 32.4137C43.0229 32.4525 43 32.5076 43 32.5788V38.9408C43 39.0056 43.0229 39.0574 43.0687 39.0962ZM49.9062 39.0574C50.2194 39.1869 50.5592 39.2517 50.9258 39.2517C51.3229 39.2517 51.6513 39.2128 51.9109 39.1351C52.1782 39.0509 52.3959 38.9506 52.5639 38.834C52.7319 38.7174 52.8617 38.6009 52.9534 38.4843V38.9408C52.9534 39.0056 52.9763 39.0574 53.0221 39.0963C53.0679 39.1351 53.129 39.1545 53.2054 39.1545H53.4001C53.4765 39.1545 53.5376 39.1351 53.5834 39.0963C53.6292 39.0574 53.6521 39.0056 53.6521 38.9408V35.7064C53.6521 35.5122 53.6178 35.3147 53.549 35.1139C53.4803 34.9132 53.3619 34.7319 53.1939 34.57C53.0336 34.4016 52.8044 34.2657 52.5066 34.1621C52.2164 34.0585 51.846 34.0066 51.3954 34.0066C51.0136 34.0066 50.689 34.052 50.4217 34.1426C50.1544 34.2333 49.9368 34.3466 49.7688 34.4826C49.6008 34.6121 49.4748 34.7448 49.3908 34.8808C49.3144 35.0168 49.2762 35.1301 49.2762 35.2208C49.2762 35.2791 49.2953 35.3309 49.3335 35.3762C49.3717 35.415 49.4366 35.4345 49.5282 35.4345H49.7115C49.8184 35.4345 49.891 35.3859 49.9292 35.2888C50.0208 35.0751 50.1888 34.9035 50.4332 34.774C50.6776 34.638 50.9983 34.57 51.3954 34.57C51.9377 34.57 52.331 34.6704 52.5753 34.8711C52.8274 35.0654 52.9534 35.3341 52.9534 35.6773V36.0172L51.1434 36.2309C50.4714 36.3086 49.9253 36.4802 49.5053 36.7457C49.0853 37.0112 48.8753 37.3641 48.8753 37.8044C48.8753 38.0764 48.9707 38.3225 49.1616 38.5426C49.3526 38.7563 49.6008 38.9279 49.9062 39.0574ZM52.0026 38.494C51.7124 38.6236 51.3916 38.6883 51.0403 38.6883C50.8036 38.6883 50.5706 38.6559 50.3415 38.5912C50.1201 38.5199 49.9368 38.4163 49.7917 38.2804C49.6466 38.1444 49.574 37.9695 49.574 37.7559C49.574 37.4904 49.7344 37.2702 50.0552 37.0954C50.3759 36.9205 50.8494 36.7975 51.4756 36.7263L52.9534 36.5514V36.8817C52.9534 37.2896 52.8655 37.6296 52.6899 37.9016C52.5219 38.167 52.2928 38.3645 52.0026 38.494ZM58.4082 39.2517C57.8736 39.2517 57.4192 39.1642 57.045 38.9894C56.6708 38.8081 56.3844 38.5491 56.1858 38.2124C55.9949 37.8757 55.8918 37.4774 55.8765 37.0177C55.8689 36.9205 55.8651 36.791 55.8651 36.6292C55.8651 36.4673 55.8689 36.3378 55.8765 36.2406C55.8918 35.7744 55.9949 35.3762 56.1858 35.0459C56.3844 34.7092 56.6708 34.4534 57.045 34.2786C57.4192 34.0973 57.8736 34.0066 58.4082 34.0066C58.8129 34.0066 59.1604 34.0552 59.4506 34.1523C59.7484 34.243 59.9928 34.366 60.1837 34.5214C60.3747 34.6704 60.5198 34.8355 60.619 35.0168C60.7183 35.1981 60.7718 35.3762 60.7794 35.551C60.787 35.6158 60.7641 35.6676 60.7107 35.7064C60.6572 35.7453 60.5961 35.7647 60.5274 35.7647H60.367C60.2906 35.7647 60.2334 35.7518 60.1952 35.7258C60.1646 35.6935 60.1303 35.6384 60.0921 35.5607C59.9317 35.1916 59.7102 34.9359 59.4277 34.7934C59.1527 34.6445 58.8129 34.57 58.4082 34.57C57.8888 34.57 57.4574 34.706 57.1137 34.9779C56.7777 35.2434 56.5982 35.6805 56.5753 36.2892C56.56 36.5158 56.56 36.7425 56.5753 36.9691C56.5982 37.5778 56.7777 38.0181 57.1137 38.2901C57.4574 38.5556 57.8888 38.6883 58.4082 38.6883C58.8129 38.6883 59.1527 38.6171 59.4277 38.4746C59.7102 38.3257 59.9317 38.0667 60.0921 37.6976C60.1303 37.6199 60.1646 37.5681 60.1952 37.5422C60.2334 37.5098 60.2906 37.4936 60.367 37.4936H60.5274C60.5961 37.4936 60.6572 37.513 60.7107 37.5519C60.7641 37.5907 60.787 37.6425 60.7794 37.7073C60.7718 37.8498 60.7374 37.9922 60.6763 38.1347C60.6152 38.2771 60.5198 38.4163 60.3899 38.5523C60.2677 38.6883 60.115 38.8081 59.9317 38.9117C59.7484 39.0153 59.527 39.0963 59.2673 39.1545C59.0153 39.2193 58.7289 39.2517 58.4082 39.2517ZM64.6178 39.0962C64.6636 39.1351 64.7247 39.1545 64.8011 39.1545H64.9958C65.0722 39.1545 65.1333 39.1351 65.1791 39.0962C65.225 39.0574 65.2479 39.0056 65.2479 38.9408V34.6671H67.3442C67.4206 34.6671 67.4817 34.6477 67.5275 34.6088C67.5733 34.57 67.5962 34.5182 67.5962 34.4534V34.3174C67.5962 34.2527 67.5733 34.2009 67.5275 34.162C67.4817 34.1232 67.4206 34.1037 67.3442 34.1037H62.4528C62.3764 34.1037 62.3153 34.1232 62.2695 34.162C62.2237 34.2009 62.2008 34.2527 62.2008 34.3174V34.4534C62.2008 34.5182 62.2237 34.57 62.2695 34.6088C62.3153 34.6477 62.3764 34.6671 62.4528 34.6671H64.5491V38.9408C64.5491 39.0056 64.572 39.0574 64.6178 39.0962ZM69.6255 41C69.5492 41 69.4881 40.9806 69.4423 40.9417C69.3964 40.9029 69.3735 40.8511 69.3735 40.7863V34.3175C69.3735 34.2527 69.3964 34.2009 69.4423 34.1621C69.4881 34.1232 69.5492 34.1038 69.6255 34.1038H69.8203C69.8967 34.1038 69.9577 34.1232 70.0036 34.1621C70.0494 34.2009 70.0723 34.2527 70.0723 34.3175V34.774C70.2632 34.5538 70.5114 34.3725 70.8169 34.23C71.13 34.0811 71.5233 34.0066 71.9968 34.0066C72.4474 34.0066 72.8254 34.0746 73.1309 34.2106C73.4363 34.3401 73.6845 34.515 73.8755 34.7351C74.0664 34.9553 74.2077 35.2013 74.2993 35.4733C74.391 35.7453 74.4406 36.0237 74.4482 36.3086C74.4559 36.4058 74.4597 36.5126 74.4597 36.6292C74.4597 36.7457 74.4559 36.8526 74.4482 36.9497C74.4406 37.2346 74.391 37.513 74.2993 37.785C74.2077 38.057 74.0664 38.303 73.8755 38.5232C73.6845 38.7433 73.4363 38.9214 73.1309 39.0574C72.8254 39.1869 72.4474 39.2517 71.9968 39.2517C71.5233 39.2517 71.13 39.1772 70.8169 39.0283C70.5114 38.8793 70.2632 38.698 70.0723 38.4843V40.7863C70.0723 40.8511 70.0494 40.9029 70.0036 40.9417C69.9577 40.9806 69.8967 41 69.8203 41H69.6255ZM71.9281 38.6883C72.3786 38.6883 72.7338 38.6041 72.9934 38.4358C73.2531 38.2674 73.4402 38.0473 73.5547 37.7753C73.6693 37.5033 73.7342 37.2119 73.7495 36.9011C73.7571 36.7198 73.7571 36.5385 73.7495 36.3572C73.7342 36.0464 73.6693 35.755 73.5547 35.483C73.4402 35.2111 73.2531 34.9909 72.9934 34.8225C72.7338 34.6542 72.3786 34.57 71.9281 34.57C71.4928 34.57 71.1415 34.6574 70.8742 34.8323C70.6069 35.0071 70.4083 35.2272 70.2785 35.4927C70.1563 35.7518 70.0876 36.014 70.0723 36.2795C70.0647 36.3766 70.0609 36.5029 70.0609 36.6583C70.0609 36.8137 70.0647 36.94 70.0723 37.0371C70.0799 37.2961 70.1487 37.5519 70.2785 37.8044C70.416 38.057 70.6183 38.2674 70.8856 38.4358C71.1606 38.6041 71.508 38.6883 71.9281 38.6883ZM77.588 38.9603C77.9622 39.1545 78.4242 39.2517 78.9741 39.2517C79.5239 39.2517 79.9822 39.1545 80.3487 38.9603C80.7229 38.766 81.0055 38.5005 81.1964 38.1638C81.395 37.8271 81.5019 37.4515 81.5172 37.0371C81.5248 36.94 81.5286 36.804 81.5286 36.6292C81.5286 36.4543 81.5248 36.3183 81.5172 36.2212C81.5019 35.8003 81.395 35.4247 81.1964 35.0945C81.0055 34.7578 80.7229 34.4923 80.3487 34.298C79.9822 34.1038 79.5239 34.0066 78.9741 34.0066C78.4242 34.0066 77.9622 34.1038 77.588 34.298C77.2214 34.4923 76.9389 34.7578 76.7403 35.0945C76.5494 35.4247 76.4463 35.8003 76.431 36.2212C76.4234 36.3183 76.4195 36.4543 76.4195 36.6292C76.4195 36.804 76.4234 36.94 76.431 37.0371C76.4463 37.4515 76.5494 37.8271 76.7403 38.1638C76.9389 38.5005 77.2214 38.766 77.588 38.9603ZM80.28 38.2512C79.944 38.5426 79.5087 38.6883 78.9741 38.6883C78.4395 38.6883 78.0042 38.5426 77.6682 38.2512C77.3321 37.9598 77.1527 37.5389 77.1298 36.9885C77.1221 36.8914 77.1183 36.7716 77.1183 36.6292C77.1183 36.4867 77.1221 36.3669 77.1298 36.2698C77.1527 35.7129 77.3321 35.292 77.6682 35.0071C78.0042 34.7157 78.4395 34.57 78.9741 34.57C79.5087 34.57 79.944 34.7157 80.28 35.0071C80.616 35.292 80.7955 35.7129 80.8184 36.2698C80.826 36.3669 80.8299 36.4867 80.8299 36.6292C80.8299 36.7716 80.826 36.8914 80.8184 36.9885C80.7955 37.5389 80.616 37.9598 80.28 38.2512ZM85.6007 39.1545C85.5244 39.1545 85.4633 39.1351 85.4174 39.0962C85.3716 39.0574 85.3487 39.0056 85.3487 38.9408V34.6671H83.2524C83.176 34.6671 83.1149 34.6477 83.0691 34.6088C83.0233 34.57 83.0004 34.5182 83.0004 34.4534V34.3174C83.0004 34.2527 83.0233 34.2009 83.0691 34.162C83.1149 34.1232 83.176 34.1037 83.2524 34.1037H88.1438C88.2202 34.1037 88.2813 34.1232 88.3271 34.162C88.3729 34.2009 88.3958 34.2527 88.3958 34.3174V34.4534C88.3958 34.5182 88.3729 34.57 88.3271 34.6088C88.2813 34.6477 88.2202 34.6671 88.1438 34.6671H86.0475V38.9408C86.0475 39.0056 86.0246 39.0574 85.9788 39.0962C85.9329 39.1351 85.8718 39.1545 85.7955 39.1545H85.6007ZM90.1149 40.9417C90.1608 40.9805 90.2219 41 90.2982 41H90.6877C90.9626 41 91.2032 40.9255 91.4094 40.7766C91.6156 40.6341 91.7951 40.4463 91.9478 40.2132C92.1005 39.9866 92.238 39.747 92.3602 39.4944C92.4824 39.2484 92.5931 39.025 92.6924 38.8242L94.8689 34.4923C94.8918 34.4405 94.9071 34.4016 94.9147 34.3757C94.93 34.3498 94.9376 34.3239 94.9376 34.298C94.9376 34.2462 94.9147 34.2009 94.8689 34.162C94.8231 34.1232 94.7696 34.1037 94.7085 34.1037H94.5023C94.426 34.1037 94.3687 34.1167 94.3305 34.1426C94.2923 34.1685 94.2618 34.2041 94.2389 34.2494L92.2947 38.1275L90.344 34.2494C90.3211 34.2106 90.2906 34.1782 90.2524 34.1523C90.2142 34.1199 90.1569 34.1037 90.0806 34.1037H89.8629C89.8018 34.1037 89.7484 34.1232 89.7026 34.162C89.6567 34.2009 89.6338 34.2462 89.6338 34.298C89.6338 34.3304 89.6567 34.3951 89.7026 34.4923L91.9224 38.8704L91.6729 39.3682C91.5354 39.6401 91.417 39.8538 91.3178 40.0092C91.2261 40.1646 91.123 40.2747 91.0085 40.3395C90.8939 40.4042 90.745 40.4366 90.5617 40.4366H90.2982C90.2219 40.4366 90.1608 40.456 90.1149 40.4949C90.0691 40.5337 90.0462 40.5855 90.0462 40.6503V40.7863C90.0462 40.851 90.0691 40.9028 90.1149 40.9417ZM97.177 41C97.1006 41 97.0395 40.9806 96.9937 40.9417C96.9479 40.9029 96.925 40.8511 96.925 40.7863V34.3175C96.925 34.2527 96.9479 34.2009 96.9937 34.1621C97.0395 34.1232 97.1006 34.1038 97.177 34.1038H97.3717C97.4481 34.1038 97.5092 34.1232 97.555 34.1621C97.6008 34.2009 97.6237 34.2527 97.6237 34.3175V34.774C97.8147 34.5538 98.0629 34.3725 98.3683 34.23C98.6816 34.0811 99.0748 34.0066 99.5482 34.0066C99.9988 34.0066 100.377 34.0746 100.682 34.2106C100.988 34.3401 101.236 34.515 101.427 34.7351C101.618 34.9553 101.759 35.2013 101.851 35.4733C101.942 35.7453 101.992 36.0237 102 36.3086C102.008 36.4058 102.011 36.5126 102.011 36.6292C102.011 36.7457 102.008 36.8526 102 36.9497C101.992 37.2346 101.942 37.513 101.851 37.785C101.759 38.057 101.618 38.303 101.427 38.5232C101.236 38.7433 100.988 38.9214 100.682 39.0574C100.377 39.1869 99.9988 39.2517 99.5482 39.2517C99.0748 39.2517 98.6816 39.1772 98.3683 39.0283C98.0629 38.8793 97.8147 38.698 97.6237 38.4843V40.7863C97.6237 40.8511 97.6008 40.9029 97.555 40.9417C97.5092 40.9806 97.4481 41 97.3717 41H97.177ZM99.4795 38.6883C99.9301 38.6883 100.285 38.6041 100.545 38.4358C100.805 38.2674 100.992 38.0473 101.106 37.7753C101.221 37.5033 101.286 37.2119 101.301 36.9011C101.309 36.7198 101.309 36.5385 101.301 36.3572C101.286 36.0464 101.221 35.755 101.106 35.483C100.992 35.2111 100.805 34.9909 100.545 34.8225C100.285 34.6542 99.9301 34.57 99.4795 34.57C99.0442 34.57 98.6929 34.6574 98.4256 34.8323C98.1583 35.0071 97.9598 35.2272 97.8299 35.4927C97.7078 35.7518 97.639 36.014 97.6237 36.2795C97.6161 36.3766 97.6123 36.5029 97.6123 36.6583C97.6123 36.8137 97.6161 36.94 97.6237 37.0371C97.6314 37.2961 97.7001 37.5519 97.8299 37.8044C97.9674 38.057 98.1698 38.2674 98.4371 38.4358C98.712 38.6041 99.0595 38.6883 99.4795 38.6883ZM104.324 39.0962C104.37 39.1351 104.431 39.1545 104.508 39.1545H106.043C106.845 39.1545 107.433 39.025 107.807 38.766C108.189 38.5005 108.38 38.0828 108.38 37.513C108.38 36.9885 108.212 36.5708 107.875 36.26C107.547 35.9492 106.993 35.7938 106.214 35.7938H104.954V34.3174C104.954 34.2527 104.931 34.2009 104.886 34.162C104.84 34.1232 104.779 34.1037 104.702 34.1037H104.508C104.431 34.1037 104.37 34.1232 104.324 34.162C104.279 34.2009 104.256 34.2527 104.256 34.3174V38.9408C104.256 39.0056 104.279 39.0574 104.324 39.0962ZM106.146 38.5911H104.954V36.3572H106.146C106.696 36.3572 107.089 36.4543 107.326 36.6485C107.562 36.8363 107.681 37.1245 107.681 37.513C107.681 37.9145 107.559 38.1961 107.314 38.358C107.07 38.5134 106.68 38.5911 106.146 38.5911ZM109.319 39.0962C109.365 39.1351 109.426 39.1545 109.502 39.1545H109.697C109.773 39.1545 109.834 39.1351 109.88 39.0962C109.926 39.0574 109.949 39.0056 109.949 38.9408V34.3174C109.949 34.2527 109.926 34.2009 109.88 34.162C109.834 34.1232 109.773 34.1037 109.697 34.1037H109.502C109.426 34.1037 109.365 34.1232 109.319 34.162C109.273 34.2009 109.25 34.2527 109.25 34.3174V38.9408C109.25 39.0056 109.273 39.0574 109.319 39.0962ZM118.393 39.2517C117.858 39.2517 117.404 39.1642 117.029 38.9894C116.655 38.8081 116.369 38.5491 116.17 38.2124C115.979 37.8757 115.876 37.4774 115.861 37.0177C115.853 36.9205 115.849 36.791 115.849 36.6292C115.849 36.4673 115.853 36.3378 115.861 36.2406C115.876 35.7744 115.979 35.3762 116.17 35.0459C116.369 34.7092 116.655 34.4534 117.029 34.2786C117.404 34.0973 117.858 34.0066 118.393 34.0066C118.797 34.0066 119.145 34.0552 119.435 34.1523C119.733 34.243 119.977 34.366 120.168 34.5214C120.359 34.6704 120.504 34.8355 120.603 35.0168C120.703 35.1981 120.756 35.3762 120.764 35.551C120.771 35.6158 120.749 35.6676 120.695 35.7064C120.642 35.7453 120.581 35.7647 120.512 35.7647H120.351C120.275 35.7647 120.218 35.7518 120.18 35.7258C120.149 35.6935 120.115 35.6384 120.076 35.5607C119.916 35.1916 119.695 34.9359 119.412 34.7934C119.137 34.6445 118.797 34.57 118.393 34.57C117.873 34.57 117.442 34.706 117.098 34.9779C116.762 35.2434 116.583 35.6805 116.56 36.2892C116.544 36.5158 116.544 36.7425 116.56 36.9691C116.583 37.5778 116.762 38.0181 117.098 38.2901C117.442 38.5556 117.873 38.6883 118.393 38.6883C118.797 38.6883 119.137 38.6171 119.412 38.4746C119.695 38.3257 119.916 38.0667 120.076 37.6976C120.115 37.6199 120.149 37.5681 120.18 37.5422C120.218 37.5098 120.275 37.4936 120.351 37.4936H120.512C120.581 37.4936 120.642 37.513 120.695 37.5519C120.749 37.5907 120.771 37.6425 120.764 37.7073C120.756 37.8498 120.722 37.9922 120.661 38.1347C120.6 38.2771 120.504 38.4163 120.374 38.5523C120.252 38.6883 120.099 38.8081 119.916 38.9117C119.733 39.0153 119.511 39.0963 119.252 39.1545C119 39.2193 118.713 39.2517 118.393 39.2517ZM127.487 38.9603C127.861 39.1545 128.323 39.2517 128.873 39.2517C129.422 39.2517 129.881 39.1545 130.247 38.9603C130.621 38.766 130.904 38.5005 131.095 38.1638C131.293 37.8271 131.4 37.4515 131.416 37.0371C131.423 36.94 131.427 36.804 131.427 36.6292C131.427 36.4543 131.423 36.3183 131.416 36.2212C131.4 35.8003 131.293 35.4247 131.095 35.0945C130.904 34.7578 130.621 34.4923 130.247 34.298C129.881 34.1038 129.422 34.0066 128.873 34.0066C128.323 34.0066 127.861 34.1038 127.487 34.298C127.12 34.4923 126.837 34.7578 126.639 35.0945C126.448 35.4247 126.345 35.8003 126.33 36.2212C126.322 36.3183 126.318 36.4543 126.318 36.6292C126.318 36.804 126.322 36.94 126.33 37.0371C126.345 37.4515 126.448 37.8271 126.639 38.1638C126.837 38.5005 127.12 38.766 127.487 38.9603ZM130.178 38.2512C129.842 38.5426 129.407 38.6883 128.873 38.6883C128.338 38.6883 127.903 38.5426 127.567 38.2512C127.231 37.9598 127.051 37.5389 127.028 36.9885C127.021 36.8914 127.017 36.7716 127.017 36.6292C127.017 36.4867 127.021 36.3669 127.028 36.2698C127.051 35.7129 127.231 35.292 127.567 35.0071C127.903 34.7157 128.338 34.57 128.873 34.57C129.407 34.57 129.842 34.7157 130.178 35.0071C130.515 35.292 130.694 35.7129 130.717 36.2698C130.725 36.3669 130.728 36.4867 130.728 36.6292C130.728 36.7716 130.725 36.8914 130.717 36.9885C130.694 37.5389 130.515 37.9598 130.178 38.2512ZM140.82 40.9417C140.866 40.9805 140.927 41 141.003 41H141.393C141.668 41 141.908 40.9255 142.115 40.7766C142.321 40.6341 142.5 40.4463 142.653 40.2132C142.806 39.9866 142.943 39.747 143.065 39.4944C143.188 39.2484 143.298 39.025 143.398 38.8242L145.575 34.4923C145.588 34.4628 145.598 34.4376 145.605 34.4165C145.611 34.4005 145.616 34.3869 145.619 34.3757C145.634 34.3498 145.644 34.3239 145.644 34.298C145.644 34.2462 145.619 34.2009 145.575 34.162C145.529 34.1232 145.476 34.1037 145.415 34.1037H145.208C145.13 34.1037 145.075 34.1167 145.037 34.1426C144.996 34.1685 144.968 34.2041 144.943 34.2494L142.998 38.1302L141.049 34.2494C141.026 34.2106 140.996 34.1782 140.958 34.1523C140.919 34.1199 140.862 34.1037 140.786 34.1037H140.568C140.507 34.1037 140.453 34.1232 140.408 34.162C140.362 34.2009 140.339 34.2462 140.339 34.298C140.339 34.3304 140.362 34.3951 140.408 34.4923L142.651 38.8242L142.378 39.3682C142.241 39.6401 142.122 39.8538 142.023 40.0092C141.931 40.1646 141.828 40.2747 141.714 40.3395C141.599 40.4042 141.45 40.4366 141.267 40.4366H141.003C140.927 40.4366 140.866 40.456 140.82 40.4949C140.774 40.5337 140.751 40.5855 140.751 40.6503V40.7863C140.751 40.851 140.774 40.9028 140.82 40.9417ZM151.351 39.1545C151.274 39.1545 151.213 39.1351 151.167 39.0962C151.122 39.0574 151.099 39.0056 151.099 38.9408V36.9594C150.885 37.1407 150.625 37.2734 150.32 37.3576C150.014 37.4353 149.663 37.4741 149.266 37.4741C148.617 37.4741 148.109 37.3608 147.742 37.1342C147.383 36.9076 147.204 36.5385 147.204 36.0269V34.3174C147.204 34.2527 147.227 34.2009 147.273 34.162C147.318 34.1232 147.379 34.1037 147.456 34.1037H147.651C147.727 34.1037 147.788 34.1232 147.834 34.162C147.88 34.2009 147.903 34.2527 147.903 34.3174V35.9783C147.903 36.2956 148.017 36.532 148.246 36.6874C148.483 36.8363 148.838 36.9108 149.312 36.9108C149.854 36.9108 150.285 36.8558 150.606 36.7457C150.934 36.6356 151.099 36.4316 151.099 36.1338V34.3174C151.099 34.2527 151.122 34.2009 151.167 34.162C151.213 34.1232 151.274 34.1037 151.351 34.1037H151.545C151.622 34.1037 151.683 34.1232 151.729 34.162C151.774 34.2009 151.797 34.2527 151.797 34.3174V38.9408C151.797 39.0056 151.774 39.0574 151.729 39.0962C151.683 39.1351 151.622 39.1545 151.545 39.1545H151.351ZM154.791 38.6397C155.226 39.0477 155.815 39.2517 156.555 39.2517C156.914 39.2517 157.239 39.2096 157.529 39.1254C157.819 39.0412 158.064 38.9344 158.262 38.8049C158.468 38.6754 158.625 38.5459 158.732 38.4163C158.846 38.2804 158.907 38.167 158.915 38.0764C158.923 38.0181 158.9 37.9728 158.846 37.9404C158.801 37.9016 158.743 37.8821 158.675 37.8821H158.491C158.407 37.8821 158.346 37.8918 158.308 37.9113C158.27 37.9242 158.216 37.9728 158.148 38.057C158.109 38.1088 158.025 38.1865 157.896 38.2901C157.766 38.3872 157.59 38.4779 157.369 38.562C157.155 38.6462 156.884 38.6883 156.555 38.6883C156.189 38.6883 155.872 38.6074 155.605 38.4455C155.337 38.2771 155.131 38.0634 154.986 37.8044C154.841 37.5389 154.761 37.2605 154.745 36.9691V36.9108V36.872H158.823C158.9 36.872 158.961 36.8526 159.007 36.8137C159.06 36.7748 159.087 36.723 159.087 36.6583V36.5126C159.087 35.9946 158.984 35.5478 158.778 35.1722C158.579 34.7966 158.293 34.5085 157.918 34.3077C157.544 34.107 157.09 34.0066 156.555 34.0066C156.059 34.0066 155.627 34.1005 155.261 34.2883C154.902 34.4761 154.619 34.7384 154.413 35.0751C154.207 35.4118 154.085 35.8003 154.047 36.2406C154.039 36.3378 154.035 36.4673 154.035 36.6292C154.035 36.791 154.039 36.9205 154.047 37.0177C154.108 37.6846 154.356 38.2253 154.791 38.6397ZM158.388 36.3281H154.745V36.2892C154.745 35.9654 154.814 35.674 154.952 35.415C155.097 35.156 155.303 34.952 155.57 34.8031C155.845 34.6477 156.173 34.57 156.555 34.57C156.937 34.57 157.266 34.6477 157.54 34.8031C157.815 34.952 158.025 35.156 158.171 35.415C158.316 35.674 158.388 35.9654 158.388 36.2892V36.3281ZM161.538 39.1545C161.462 39.1545 161.401 39.1351 161.355 39.0962C161.309 39.0574 161.286 39.0056 161.286 38.9408V34.3174C161.286 34.2527 161.309 34.2009 161.355 34.162C161.401 34.1232 161.462 34.1037 161.538 34.1037H161.733C161.809 34.1037 161.87 34.1232 161.916 34.162C161.962 34.2009 161.985 34.2527 161.985 34.3174V36.2892H165.559V34.3174C165.559 34.2527 165.582 34.2009 165.628 34.162C165.674 34.1232 165.735 34.1037 165.811 34.1037H166.006C166.082 34.1037 166.143 34.1232 166.189 34.162C166.235 34.2009 166.258 34.2527 166.258 34.3174V38.9408C166.258 39.0056 166.235 39.0574 166.189 39.0962C166.143 39.1351 166.082 39.1545 166.006 39.1545H165.811C165.735 39.1545 165.674 39.1351 165.628 39.0962C165.582 39.0574 165.559 39.0056 165.559 38.9408V36.8525H161.985V38.9408C161.985 39.0056 161.962 39.0574 161.916 39.0962C161.87 39.1351 161.809 39.1545 161.733 39.1545H161.538ZM168.867 39.0962C168.913 39.1351 168.966 39.1545 169.027 39.1545H169.245C169.321 39.1545 169.382 39.1383 169.428 39.1059C169.474 39.0736 169.512 39.0412 169.543 39.0088L173.195 34.9518L173.071 38.9408C173.071 39.0056 173.094 39.0574 173.14 39.0962C173.185 39.1351 173.247 39.1545 173.323 39.1545H173.518C173.594 39.1545 173.655 39.1351 173.701 39.0962C173.747 39.0574 173.77 39.0056 173.77 38.9408V34.2883C173.77 34.2365 173.747 34.1944 173.701 34.162C173.655 34.1232 173.602 34.1037 173.541 34.1037H173.323C173.247 34.1037 173.185 34.1199 173.14 34.1523C173.101 34.1782 173.063 34.2106 173.025 34.2494L169.497 38.3859V34.3174C169.497 34.2527 169.474 34.2009 169.428 34.162C169.382 34.1232 169.321 34.1037 169.245 34.1037H169.05C168.974 34.1037 168.913 34.1232 168.867 34.162C168.821 34.2009 168.798 34.2527 168.798 34.3174V38.9602C168.798 39.012 168.821 39.0574 168.867 39.0962ZM178.519 39.2517C177.778 39.2517 177.19 39.0477 176.755 38.6397C176.32 38.2253 176.072 37.6846 176.01 37.0177C176.003 36.9205 175.999 36.791 175.999 36.6292C175.999 36.4673 176.003 36.3378 176.01 36.2406C176.049 35.8003 176.171 35.4118 176.377 35.0751C176.583 34.7384 176.866 34.4761 177.225 34.2883C177.591 34.1005 178.023 34.0066 178.519 34.0066C179.054 34.0066 179.508 34.107 179.882 34.3077C180.257 34.5085 180.543 34.7966 180.741 35.1722C180.948 35.5478 181.051 35.9946 181.051 36.5126V36.6583C181.051 36.723 181.024 36.7748 180.971 36.8137C180.925 36.8526 180.864 36.872 180.787 36.872H176.709V36.9108V36.9691C176.724 37.2605 176.805 37.5389 176.95 37.8044C177.095 38.0634 177.301 38.2771 177.568 38.4455C177.836 38.6074 178.153 38.6883 178.519 38.6883C178.848 38.6883 179.119 38.6462 179.332 38.562C179.554 38.4779 179.73 38.3872 179.859 38.2901C179.989 38.1865 180.073 38.1088 180.111 38.057C180.18 37.9728 180.234 37.9242 180.272 37.9113C180.31 37.8918 180.371 37.8821 180.455 37.8821H180.638C180.707 37.8821 180.764 37.9016 180.81 37.9404C180.864 37.9728 180.887 38.0181 180.879 38.0764C180.871 38.167 180.81 38.2804 180.696 38.4163C180.589 38.5459 180.432 38.6754 180.226 38.8049C180.027 38.9344 179.783 39.0412 179.493 39.1254C179.203 39.2096 178.878 39.2517 178.519 39.2517ZM176.709 36.3281H180.352V36.2892C180.352 35.9654 180.279 35.674 180.134 35.415C179.989 35.156 179.779 34.952 179.504 34.8031C179.229 34.6477 178.901 34.57 178.519 34.57C178.137 34.57 177.809 34.6477 177.534 34.8031C177.267 34.952 177.06 35.156 176.915 35.415C176.778 35.674 176.709 35.9654 176.709 36.2892V36.3281ZM183.318 39.0962C183.364 39.1351 183.425 39.1545 183.501 39.1545H183.696C183.773 39.1545 183.834 39.1351 183.879 39.0962C183.925 39.0574 183.948 39.0056 183.948 38.9408L183.843 35.2199L185.621 38.0569C185.659 38.1217 185.705 38.1832 185.758 38.2415C185.812 38.2997 185.896 38.3289 186.01 38.3289H186.239C186.354 38.3289 186.438 38.2997 186.491 38.2415C186.545 38.1832 186.591 38.1217 186.629 38.0569L188.423 35.1093L188.301 38.9408C188.301 39.0056 188.324 39.0574 188.37 39.0962C188.416 39.1351 188.477 39.1545 188.553 39.1545H188.748C188.824 39.1545 188.885 39.1351 188.931 39.0962C188.977 39.0574 189 39.0056 189 38.9408V34.2883C189 34.2365 188.977 34.1944 188.931 34.162C188.885 34.1232 188.832 34.1037 188.771 34.1037H188.507C188.393 34.1037 188.305 34.1523 188.244 34.2494L186.125 37.649L184.005 34.2494C183.944 34.1523 183.857 34.1037 183.742 34.1037H183.479C183.425 34.1037 183.372 34.1232 183.318 34.162C183.272 34.1944 183.249 34.2365 183.249 34.2883V38.9408C183.249 39.0056 183.272 39.0574 183.318 39.0962Z" fill="white"/>
</svg>
